{
  "accessors": [
    {
      "bufferView": 2,
      "componentType": 5126,
      "count": 1664,
      "max": [
        1885.9649658203125,
        174.97610473632813,
        1722.193359375
      ],
      "min": [
        -28.107542037963867,
        -62.1640739440918,
        359.8851318359375
      ],
      "type": "VEC3"
    },
    {
      "bufferView": 2,
      "byteOffset": 19968,
      "componentType": 5126,
      "count": 1664,
      "max": [
        0.9973352551460266,
        0.9994384050369263,
        0.997103214263916
      ],
      "min": [
        -0.998536229133606,
        -0.9996386766433716,
        -0.9984911680221558
      ],
      "type": "VEC3"
    },
    {
      "bufferView": 1,
      "componentType": 5126,
      "count": 1664,
      "max": [
        0.9878048300743103,
        3.197791337966919
      ],
      "min": [
        0.012195045128464699,
        -17.766324996948242
      ],
      "type": "VEC2"
    },
    {
      "bufferView": 1,
      "byteOffset": 13312,
      "componentType": 5126,
      "count": 1664,
      "max": [
        0.9878048300743103,
        3.197791337966919
      ],
      "min": [
        0.012195045128464699,
        -17.766324996948242
      ],
      "type": "VEC2"
    },
    {
      "bufferView": 1,
      "byteOffset": 26624,
      "componentType": 5126,
      "count": 1664,
      "max": [
        0.9878048300743103,
        3.197791337966919
      ],
      "min": [
        0.012195045128464699,
        -17.766324996948242
      ],
      "type": "VEC2"
    },
    {
      "bufferView": 0,
      "componentType": 5125,
      "count": 9888,
      "type": "SCALAR"
    },
    {
      "bufferView": 2,
      "byteOffset": 39936,
      "componentType": 5126,
      "count": 1616,
      "max": [
        1171.0594482421875,
        211.914306640625,
        343.9070739746094
      ],
      "min": [
        -957.79541015625,
        -74.90850067138672,
        -987.02001953125
      ],
      "type": "VEC3"
    },
    {
      "bufferView": 2,
      "byteOffset": 59328,
      "componentType": 5126,
      "count": 1616,
      "max": [
        0.9996345043182373,
        0.9999977946281433,
        0.9979726672172546
      ],
      "min": [
        -0.9977987408638,
        -0.9999970197677612,
        -0.9972787499427795
      ],
      "type": "VEC3"
    },
    {
      "bufferView": 1,
      "byteOffset": 39936,
      "componentType": 5126,
      "count": 1616,
      "max": [
        0.9878048300743103,
        31.692712783813477
      ],
      "min": [
        0.012195045128464699,
        -51.146087646484375
      ],
      "type": "VEC2"
    },
    {
      "bufferView": 1,
      "byteOffset": 52864,
      "componentType": 5126,
      "count": 1616,
      "max": [
        0.9878048300743103,
        31.692712783813477
      ],
      "min": [
        0.012195045128464699,
        -51.146087646484375
      ],
      "type": "VEC2"
    },
    {
      "bufferView": 1,
      "byteOffset": 65792,
      "componentType": 5126,
      "count": 1616,
      "max": [
        0.9878048300743103,
        31.692712783813477
      ],
      "min": [
        0.012195045128464699,
        -51.146087646484375
      ],
      "type": "VEC2"
    },
    {
      "bufferView": 0,
      "byteOffset": 39552,
      "componentType": 5125,
      "count": 9504,
      "type": "SCALAR"
    },
    {
      "bufferView": 2,
      "byteOffset": 78720,
      "componentType": 5126,
      "count": 1664,
      "max": [
        2782.912353515625,
        218.8331298828125,
        1151.97412109375
      ],
      "min": [
        1111.414794921875,
        -123.9111328125,
        -665.41162109375
      ],
      "type": "VEC3"
    },
    {
      "bufferView": 2,
      "byteOffset": 98688,
      "componentType": 5126,
      "count": 1664,
      "max": [
        0.9983741044998169,
        0.9999887347221375,
        0.9999944567680359
      ],
      "min": [
        -0.9999055862426758,
        -0.9999877214431763,
        -0.9991639256477356
      ],
      "type": "VEC3"
    },
    {
      "bufferView": 1,
      "byteOffset": 78720,
      "componentType": 5126,
      "count": 1664,
      "max": [
        0.9878048300743103,
        24.161914825439453
      ],
      "min": [
        0.012195045128464699,
        3.197791337966919
      ],
      "type": "VEC2"
    },
    {
      "bufferView": 1,
      "byteOffset": 92032,
      "componentType": 5126,
      "count": 1664,
      "max": [
        0.9878048300743103,
        24.161914825439453
      ],
      "min": [
        0.012195045128464699,
        3.197791337966919
      ],
      "type": "VEC2"
    },
    {
      "bufferView": 1,
      "byteOffset": 105344,
      "componentType": 5126,
      "count": 1664,
      "max": [
        0.9878048300743103,
        24.161914825439453
      ],
      "min": [
        0.012195045128464699,
        3.197791337966919
      ],
      "type": "VEC2"
    },
    {
      "bufferView": 0,
      "byteOffset": 77568,
      "componentType": 5125,
      "count": 9888,
      "type": "SCALAR"
    },
    {
      "bufferView": 2,
      "byteOffset": 118656,
      "componentType": 5126,
      "count": 1648,
      "max": [
        1793.786865234375,
        263.4707336425781,
        1963.84375
      ],
      "min": [
        181.2391815185547,
        -41.221126556396484,
        -571.9381713867188
      ],
      "type": "VEC3"
    },
    {
      "bufferView": 2,
      "byteOffset": 138432,
      "componentType": 5126,
      "count": 1648,
      "max": [
        0.9979282021522522,
        0.9981420040130615,
        0.9970327615737915
      ],
      "min": [
        -0.9993695616722107,
        -0.9980451464653015,
        -0.9968633651733398
      ],
      "type": "VEC3"
    },
    {
      "bufferView": 1,
      "byteOffset": 118656,
      "componentType": 5126,
      "count": 1648,
      "max": [
        0.9878048300743103,
        -17.766324996948242
      ],
      "min": [
        0.012195045128464699,
        -38.52690887451172
      ],
      "type": "VEC2"
    },
    {
      "bufferView": 1,
      "byteOffset": 131840,
      "componentType": 5126,
      "count": 1648,
      "max": [
        0.9878048300743103,
        -17.766324996948242
      ],
      "min": [
        0.012195045128464699,
        -38.52690887451172
      ],
      "type": "VEC2"
    },
    {
      "bufferView": 1,
      "byteOffset": 145024,
      "componentType": 5126,
      "count": 1648,
      "max": [
        0.9878048300743103,
        -17.766324996948242
      ],
      "min": [
        0.012195045128464699,
        -38.52690887451172
      ],
      "type": "VEC2"
    },
    {
      "bufferView": 0,
      "byteOffset": 117120,
      "componentType": 5125,
      "count": 9792,
      "type": "SCALAR"
    },
    {
      "bufferView": 3,
      "componentType": 5126,
      "count": 601,
      "max": [
        20.0
      ],
      "min": [
        0.0
      ],
      "type": "SCALAR"
    },
    {
      "bufferView": 4,
      "componentType": 5126,
      "count": 601,
      "max": [
        907.3864135742188,
        74.17274475097656,
        937.2706298828125
      ],
      "min": [
        -2732.478271484375,
        -214.19000244140625,
        -1918.332275390625
      ],
      "type": "VEC3"
    },
    {
      "bufferView": 3,
      "byteOffset": 2404,
      "componentType": 5126,
      "count": 601,
      "max": [
        20.0
      ],
      "min": [
        0.0
      ],
      "type": "SCALAR"
    },
    {
      "bufferView": 5,
      "componentType": 5126,
      "count": 601,
      "max": [
        4.163336011472092e-17,
        1.1102230246251565e-16,
        2.0816681711721685e-17,
        1.0
      ],
      "min": [
        -4.163336011472092e-17,
        -8.326672684688674e-17,
        -2.7755575615628914e-17,
        1.0
      ],
      "type": "VEC4"
    },
    {
      "bufferView": 3,
      "byteOffset": 4808,
      "componentType": 5126,
      "count": 601,
      "max": [
        20.0
      ],
      "min": [
        0.0
      ],
      "type": "SCALAR"
    },
    {
      "bufferView": 5,
      "byteOffset": 9616,
      "componentType": 5126,
      "count": 601,
      "max": [
        0.13455037772655487,
        0.9999465942382813,
        0.10639414936304092,
        0.9998592734336853
      ],
      "min": [
        -0.10105891525745392,
        -0.8645676374435425,
        -0.12109185755252838,
        -0.49276357889175415
      ],
      "type": "VEC4"
    }
  ],
  "animations": [
    {
      "channels": [
        {
          "sampler": 0,
          "target": {
            "node": 5,
            "path": "translation"
          }
        },
        {
          "sampler": 1,
          "target": {
            "node": 5,
            "path": "rotation"
          }
        },
        {
          "sampler": 2,
          "target": {
            "node": 4,
            "path": "rotation"
          }
        }
      ],
      "name": "Base Stack",
      "samplers": [
        {
          "input": 24,
          "interpolation": "LINEAR",
          "output": 25
        },
        {
          "input": 26,
          "interpolation": "LINEAR",
          "output": 27
        },
        {
          "input": 28,
          "interpolation": "LINEAR",
          "output": 29
        }
      ]
    }
  ],
  "asset": {
    "extras": {
      "author": "Stéphane Agullo (https://sketchfab.com/sa3d)",
      "license": "CC-BY-4.0 (http://creativecommons.org/licenses/by/4.0/)",
      "source": "https://sketchfab.com/3d-models/loops-80349de715664616945a35056d757386",
      "title": "LOOPS"
    },
    "generator": "Sketchfab-12.68.0",
    "version": "2.0"
  },
  "bufferViews": [
    {
      "buffer": 0,
      "byteLength": 156288,
      "name": "floatBufferViews",
      "target": 34963
    },
    {
      "buffer": 0,
      "byteLength": 158208,
      "byteOffset": 156288,
      "byteStride": 8,
      "name": "floatBufferViews",
      "target": 34962
    },
    {
      "buffer": 0,
      "byteLength": 158208,
      "byteOffset": 314496,
      "byteStride": 12,
      "name": "floatBufferViews",
      "target": 34962
    },
    {
      "buffer": 0,
      "byteLength": 7212,
      "byteOffset": 472704,
      "name": "floatBufferViews"
    },
    {
      "buffer": 0,
      "byteLength": 7212,
      "byteOffset": 479916,
      "byteStride": 12,
      "name": "floatBufferViews"
    },
    {
      "buffer": 0,
      "byteLength": 19232,
      "byteOffset": 487128,
      "byteStride": 16,
      "name": "floatBufferViews"
    }
  ],
  "buffers": [
    {
      "byteLength": 506360,
      "uri": "scene.bin"
    }
  ],
  "images": [
    {
      "uri": "textures/material_baseColor.png"
    },
    {
      "uri": "textures/material_emissive.png"
    },
    {
      "uri": "textures/material_1_baseColor.png"
    },
    {
      "uri": "textures/material_1_emissive.png"
    },
    {
      "uri": "textures/material_2_baseColor.png"
    },
    {
      "uri": "textures/material_2_emissive.png"
    },
    {
      "uri": "textures/material_3_baseColor.png"
    },
    {
      "uri": "textures/material_3_emissive.png"
    }
  ],
  "materials": [
    {
      "doubleSided": true,
      "emissiveFactor": [
        1.0,
        1.0,
        1.0
      ],
      "emissiveTexture": {
        "index": 1
      },
      "name": "material",
      "pbrMetallicRoughness": {
        "baseColorFactor": [
          0.8,
          0.8,
          0.8,
          1.0
        ],
        "baseColorTexture": {
          "index": 0
        },
        "roughnessFactor": 0.4
      }
    },
    {
      "doubleSided": true,
      "emissiveFactor": [
        1.0,
        1.0,
        1.0
      ],
      "emissiveTexture": {
        "index": 3
      },
      "name": "material_1",
      "pbrMetallicRoughness": {
        "baseColorFactor": [
          0.8,
          0.8,
          0.8,
          1.0
        ],
        "baseColorTexture": {
          "index": 2
        },
        "roughnessFactor": 0.4
      }
    },
    {
      "doubleSided": true,
      "emissiveFactor": [
        1.0,
        1.0,
        1.0
      ],
      "emissiveTexture": {
        "index": 5
      },
      "name": "material_2",
      "pbrMetallicRoughness": {
        "baseColorFactor": [
          0.8,
          0.8,
          0.8,
          1.0
        ],
        "baseColorTexture": {
          "index": 4
        },
        "roughnessFactor": 0.4
      }
    },
    {
      "doubleSided": true,
      "emissiveFactor": [
        1.0,
        1.0,
        1.0
      ],
      "emissiveTexture": {
        "index": 7
      },
      "name": "material_3",
      "pbrMetallicRoughness": {
        "baseColorFactor": [
          0.8,
          0.8,
          0.8,
          1.0
        ],
        "baseColorTexture": {
          "index": 6
        },
        "roughnessFactor": 0.4
      }
    }
  ],
  "meshes": [
    {
      "name": "TUBE_01_0",
      "primitives": [
        {
          "attributes": {
            "NORMAL": 1,
            "POSITION": 0,
            "TEXCOORD_0": 2,
            "TEXCOORD_1": 3,
            "TEXCOORD_2": 4
          },
          "indices": 5,
          "material": 0,
          "mode": 4
        }
      ]
    },
    {
      "name": "TUBE_02_0",
      "primitives": [
        {
          "attributes": {
            "NORMAL": 7,
            "POSITION": 6,
            "TEXCOORD_0": 8,
            "TEXCOORD_1": 9,
            "TEXCOORD_2": 10
          },
          "indices": 11,
          "material": 1,
          "mode": 4
        }
      ]
    },
    {
      "name": "TUBE_03_0",
      "primitives": [
        {
          "attributes": {
            "NORMAL": 13,
            "POSITION": 12,
            "TEXCOORD_0": 14,
            "TEXCOORD_1": 15,
            "TEXCOORD_2": 16
          },
          "indices": 17,
          "material": 2,
          "mode": 4
        }
      ]
    },
    {
      "name": "TUBE_04_0",
      "primitives": [
        {
          "attributes": {
            "NORMAL": 19,
            "POSITION": 18,
            "TEXCOORD_0": 20,
            "TEXCOORD_1": 21,
            "TEXCOORD_2": 22
          },
          "indices": 23,
          "material": 3,
          "mode": 4
        }
      ]
    }
  ],
  "nodes": [
    {
      "children": [
        1
      ],
      "matrix": [
        0.03333333507180214,
        0.0,
        0.0,
        0.0,
        0.0,
        7.401487216851996e-18,
        -0.03333333507180214,
        0.0,
        0.0,
        0.03333333507180214,
        7.401487216851996e-18,
        0.0,
        0.0,
        0.0,
        0.0,
        1.0
      ],
      "name": "Sketchfab_model"
    },
    {
      "children": [
        2
      ],
      "matrix": [
        1.0,
        0.0,
        0.0,
        0.0,
        0.0,
        0.0,
        1.0,
        0.0,
        0.0,
        -1.0,
        0.0,
        0.0,
        0.0,
        0.0,
        0.0,
        1.0
      ],
      "name": "80b32f9951724eb4b9f450385ccdcec0.fbx"
    },
    {
      "children": [
        3
      ],
      "name": "Object_2"
    },
    {
      "children": [
        4
      ],
      "name": "RootNode"
    },
    {
      "children": [
        5
      ],
      "name": "ROT",
      "rotation": [
        0.005225261207669973,
        -0.843340277671814,
        0.008201636373996735,
        0.537291944026947
      ]
    },
    {
      "children": [
        6,
        7,
        8,
        9
      ],
      "name": "TUBE",
      "rotation": [
        -3.252606103866207e-18,
        4.231779304227828e-36,
        -1.3010426069826053e-18,
        1.0
      ],
      "scale": [
        1.0,
        1.0000001192092896,
        1.0
      ],
      "translation": [
        4.544000148773193,
        -1.0408340855860843e-17,
        1.2059999704360962
      ]
    },
    {
      "mesh": 0,
      "name": "TUBE_01_0"
    },
    {
      "mesh": 1,
      "name": "TUBE_02_0"
    },
    {
      "mesh": 2,
      "name": "TUBE_03_0"
    },
    {
      "mesh": 3,
      "name": "TUBE_04_0"
    }
  ],
  "samplers": [
    {
      "magFilter": 9729,
      "minFilter": 9987,
      "wrapS": 10497,
      "wrapT": 10497
    }
  ],
  "scene": 0,
  "scenes": [
    {
      "name": "Sketchfab_Scene",
      "nodes": [
        0
      ]
    }
  ],
  "textures": [
    {
      "sampler": 0,
      "source": 0
    },
    {
      "sampler": 0,
      "source": 1
    },
    {
      "sampler": 0,
      "source": 2
    },
    {
      "sampler": 0,
      "source": 3
    },
    {
      "sampler": 0,
      "source": 4
    },
    {
      "sampler": 0,
      "source": 5
    },
    {
      "sampler": 0,
      "source": 6
    },
    {
      "sampler": 0,
      "source": 7
    }
  ]
}
